# xmcd
#
# Track frame offsets: 
#        150
#        24088
#        38650
#
# Disc length: 932 seconds
#
# Revision: 0
# Processed by: cddbd v1.5.1PL2 Copyright (c) Steve Scherf et al.
# Submitted via: ExactAudioCopy v0.95b3
#
DISCID=1303a203
DTITLE=Van Morrison - Neuhardenburg, Germany Disk 2
DYEAR=2005
DGENRE=Blues
TTITLE0=Help Me
TTITLE1=Brown Eyed Girl
TTITLE2=Gloria
EXTD=
EXTT0=
EXTT1=
EXTT2=
PLAYORDER=
